 Disturbia 2007 720p BRRip H264 AAC-Rx(Phoenix-RG).mp4
      Format : MPEG-4 / AVC
      File size : 1.54 GiB
      Duration : 1h 44mn
      Bit rate : 1 800 Kbps
      Width : 1 280 pixels
      Height : 720 pixels
      Display aspect ratio : 16/9
      Frame rate : 23.976 fps
      Resolution : 24 bits
      Colorimetry : 4:2:0
      Scan type : Progressive
      Bits/(Pixel*Frame) : 0.081
      Stream size : 1.31 GiB (85%)

VIDEO:

      Format : AAC / LC
      Duration : 1h 44mn
      Bit rate : 309 Kbps
      Channel(s) : 6 channels
      Channel positions : Front: L C R, Rear: L R, LFE
      Sampling rate : 48.0 KHz
      Resolution : 16 bits
      Stream size : 231 MiB (15%)

SCREEN:
 
http://img13.imageshack.us/img13/2514/vlcsnap2010091609h19m25.jpg
 
http://img690.imageshack.us/img690/3850/vlcsnap2010091609h10m33.jpg
 
http://img266.imageshack.us/img266/452/vlcsnap2010091609h17m24.jpg